<svg width="23" height="22" fill="none" xmlns="http://www.w3.org/2000/svg"><path d="M18.5 0h-14a4 4 0 00-4 4v14a4 4 0 004 4h14a4 4 0 004-4V4a4 4 0 00-4-4z" fill="#2158F5"/><path d="M6.962 5.622h9.075c1.165 0 2.117.912 2.181 2.06l.004.125v6.386a2.185 2.185 0 01-2.061 2.181l-.124.004H6.962a2.185 2.185 0 01-2.181-2.061l-.004-.124V7.807c0-1.165.912-2.117 2.061-2.181l.124-.004h9.075-9.075zm10.252 3.612l-5.48 2.884a.504.504 0 01-.405.029l-.064-.029-5.48-2.883v4.958c0 .617.476 1.123 1.08 1.172l.097.004h9.075c.617 0 1.123-.475 1.173-1.08l.003-.096v-4.96zM16.037 6.63H6.962c-.617 0-1.123.476-1.172 1.08l-.004.097v.288l5.714 3.007 5.713-3.008v-.287c0-.617-.475-1.124-1.08-1.173l-.096-.004z" fill="#fff"/></svg>