<svg width="23" height="22" fill="none" xmlns="http://www.w3.org/2000/svg"><rect x=".5" width="22" height="22" rx="4" fill="#2158F5"/><rect x="10.5" y="15.5" width="2" height="2" rx="1" stroke="#fff"/><path fill-rule="evenodd" clip-rule="evenodd" d="M15.167 9.533V8.8a3.667 3.667 0 00-7.334 0v.733H7.1V8.8a4.4 4.4 0 118.8 0v.733h-.733zm-8.067 4.4a2.933 2.933 0 002.933 2.934h.063a1.1 1.1 0 010-.734h-.063a2.2 2.2 0 01-2.2-2.2H7.1z" fill="#fff"/><path d="M7 9.5h1.5v4H7a.5.5 0 01-.5-.5v-3a.5.5 0 01.5-.5zm9 0h-1.5v4H16a.5.5 0 00.5-.5v-3a.5.5 0 00-.5-.5z" stroke="#fff"/></svg>