<svg width="18" height="18" fill="none" xmlns="http://www.w3.org/2000/svg"><path d="M3.6 0h10.8A3.6 3.6 0 0118 3.6v10.8a3.6 3.6 0 01-3.6 3.6H3.6A3.6 3.6 0 010 14.4V3.6A3.6 3.6 0 013.6 0z" fill="#2158F5"/><path d="M13.013 8.09c0 3.183-4.007 5.91-4.007 5.91S5 11.273 5 8.09c0-1.084.422-2.125 1.173-2.892A3.965 3.965 0 019.006 4c1.063 0 2.082.431 2.833 1.198a4.135 4.135 0 011.174 2.893z" stroke="#fff" stroke-linecap="round" stroke-linejoin="round"/><path d="M9.006 9.385c.885 0 1.602-.69 1.602-1.539 0-.85-.717-1.538-1.602-1.538-.885 0-1.603.688-1.603 1.538 0 .85.718 1.539 1.603 1.539z" stroke="#fff" stroke-linecap="round" stroke-linejoin="round"/></svg>