<svg xmlns="http://www.w3.org/2000/svg" width="20" height="20"><defs><style>.b{fill:#fff;fill-rule:evenodd}</style></defs><path d="M20 15.512A4.489 4.489 0 0115.512 20H4.488A4.491 4.491 0 010 15.512V4.488A4.491 4.491 0 014.488 0h11.024A4.491 4.491 0 0120 4.488z" fill="#209e48"/><path class="b" d="M4.151 15.881c.067-.256.121-.476.184-.7.193-.705.391-1.411.575-2.12a.525.525 0 00-.036-.341 5.832 5.832 0 112.52 2.453.58.58 0 00-.359-.036c-1.545.393-2.574.681-2.884.744zm1.357-1.339c.579-.153 1.114-.288 1.649-.436a.485.485 0 01.4.058 4.776 4.776 0 003.23.611 4.874 4.874 0 10-5.022-2.462 1.016 1.016 0 01.108.925c-.15.41-.24.837-.365 1.304z"/><path class="b" d="M11.536 12.749a5.642 5.642 0 01-4.2-3.1 1.752 1.752 0 01.27-2.242.828.828 0 01.75-.112c.063.009.13.108.162.18.166.377.328.755.472 1.137.076.207-.063.4-.359.732a.255.255 0 00-.04.332 3.969 3.969 0 002.021 1.738.243.243 0 00.305-.081c.467-.566.512-.732.759-.62 1.177.566 1.271.588 1.276.719a1.279 1.279 0 01-1.416 1.317z"/></svg>