<svg width="24" height="24" fill="none" xmlns="http://www.w3.org/2000/svg"><rect width="24" height="24" rx="12" fill="#209E48"/><path fill-rule="evenodd" clip-rule="evenodd" d="M4.98 19.06l.22-.84.7-2.55a.63.63 0 00-.05-.4 7 7 0 113.02 2.94.7.7 0 00-.43-.05c-1.85.48-3.09.82-3.46.9zm1.63-1.61l1.98-.52a.58.58 0 01.48.07 5.85 5.85 0 10-2.15-2.22 1.22 1.22 0 01.13 1.1c-.18.5-.29 1.01-.44 1.57z" fill="#fff"/><path fill-rule="evenodd" clip-rule="evenodd" d="M13.84 15.3a6.77 6.77 0 01-5.04-3.72 2.1 2.1 0 01.33-2.7 1 1 0 01.9-.13c.07.01.15.13.2.22.2.45.39.9.56 1.36.09.25-.08.48-.43.88a.3.3 0 00-.05.4c.54.96 1.4 1.7 2.42 2.09a.3.3 0 00.37-.1c.56-.68.62-.88.91-.74 1.41.67 1.53.7 1.53.86a1.54 1.54 0 01-1.7 1.58z" fill="#fff"/></svg>